<?xml version="1.0" encoding="utf-8"?>
<!-- Generator: Adobe Illustrator 16.0.0, SVG Export Plug-In . SVG Version: 6.00 Build 0)  -->
<!DOCTYPE svg PUBLIC "-//W3C//DTD SVG 1.1//EN" "http://www.w3.org/Graphics/SVG/1.1/DTD/svg11.dtd">
<svg version="1.1" id="Ebene_1" xmlns="http://www.w3.org/2000/svg" xmlns:xlink="http://www.w3.org/1999/xlink" x="0px" y="0px"
	 width="41.422px" height="50.747px" viewBox="0 0 41.422 50.747" enable-background="new 0 0 41.422 50.747" xml:space="preserve">
<g>
	<g>
		<path fill="#E96D62" d="M11.485,46.823H1.183V27.995h10.302V46.823z M6.334,49.877c-0.572,0-1.035-0.463-1.035-1.035
			c0-0.57,0.463-1.034,1.035-1.034c0.571,0,1.035,0.464,1.035,1.034C7.369,49.415,6.905,49.877,6.334,49.877 M4.876,25.93h2.916
			c0.183,0,0.33,0.146,0.33,0.328c0,0.183-0.147,0.33-0.33,0.33H4.876c-0.182,0-0.33-0.147-0.33-0.33
			C4.546,26.077,4.694,25.93,4.876,25.93 M10.858,24.467H1.81c-1,0-1.81,0.81-1.81,1.809v22.62c0,0.999,0.81,1.812,1.81,1.812h9.048
			c0.998,0,1.809-0.812,1.809-1.812v-22.62C12.667,25.276,11.857,24.467,10.858,24.467"/>
	</g>
	<g>
		<path fill="#E96D62" d="M22.891,49.659c-0.838,0-1.519-0.68-1.519-1.519c0-0.841,0.681-1.519,1.519-1.519
			c0.84,0,1.521,0.678,1.521,1.519C24.41,48.979,23.73,49.659,22.891,49.659 M41.422,48.497V2.251c0-1.242-0.92-2.251-2.054-2.251
			H6.415C5.281,0,4.361,1.008,4.361,2.251v20.76h5.107V5.107h26.847V45.64H14.258v5.106h25.11
			C40.502,50.747,41.422,49.738,41.422,48.497"/>
	</g>
</g>
</svg>
