<?xml version="1.0" encoding="utf-8"?>
<!-- Generator: Adobe Illustrator 16.0.0, SVG Export Plug-In . SVG Version: 6.00 Build 0)  -->
<!DOCTYPE svg PUBLIC "-//W3C//DTD SVG 1.1//EN" "http://www.w3.org/Graphics/SVG/1.1/DTD/svg11.dtd">
<svg version="1.1" id="Ebene_1" xmlns="http://www.w3.org/2000/svg" xmlns:xlink="http://www.w3.org/1999/xlink" x="0px" y="0px"
	 width="48.6px" height="46.818px" viewBox="0 0 48.6 46.818" enable-background="new 0 0 48.6 46.818" xml:space="preserve">
<g>
	<g>
		<path fill="#E96D62" d="M39.414,42.791L4.167,42.803L4.173,8.437l24.678-0.008l3.867-3.997H2.07C0.927,4.432,0,5.335,0,6.451
			v38.35c0,1.116,0.927,2.019,2.069,2.019h39.333c1.146,0,2.069-0.901,2.069-2.019V16.426l-4.17,3.99L39.414,42.791z M14.135,26.47
			l1.047-1.021l7.318,7.135l20.495-19.982l-7.317-7.135l-21.541,21L14.135,26.47z M47.387,2.61l-1.465-1.428
			c-1.615-1.577-4.238-1.577-5.854,0L37.14,4.036l7.318,7.137l2.928-2.854C49.005,6.743,49.005,4.186,47.387,2.61 M13.903,27.053
			L9.33,38.497l11.535-4.656L13.903,27.053z"/>
	</g>
</g>
</svg>
