<?xml version="1.0" encoding="utf-8"?>
<!-- Generator: Adobe Illustrator 16.0.0, SVG Export Plug-In . SVG Version: 6.00 Build 0)  -->
<!DOCTYPE svg PUBLIC "-//W3C//DTD SVG 1.1//EN" "http://www.w3.org/Graphics/SVG/1.1/DTD/svg11.dtd">
<svg version="1.1" id="Ebene_1" xmlns="http://www.w3.org/2000/svg" xmlns:xlink="http://www.w3.org/1999/xlink" x="0px" y="0px"
	 width="45.46px" height="43.2px" viewBox="0 0 45.46 43.2" enable-background="new 0 0 45.46 43.2" xml:space="preserve">
<path fill="#E96D62" d="M16.897,18.739c0.08-3.221,2.929-5.812,6.438-5.812c3.51,0,6.357,2.59,6.438,5.812H16.897z M18.03,38.707
	c-5.924,3.16-11.003,4.074-13.421,1.933c-2.102-1.861-1.783-5.678,0.423-10.318C7.784,34.422,12.455,37.502,18.03,38.707
	 M43.58,1.549c-3.298-2.922-10.248-1.568-17.902,2.872c-0.786-0.075-1.584-0.118-2.395-0.118c-11.552,0-20.917,7.827-20.917,17.481
	c0,0.091,0.007,0.182,0.009,0.273C7.087,15.151,13.41,10.368,19.158,8.84c-1.845,1.433-3.684,3.019-5.477,4.744
	c-4.532,4.359-8.094,8.948-10.448,13.182c-3.626,6.523-4.381,12.201-1.35,14.886c3.251,2.881,10.05,1.605,17.573-2.685
	c1.241,0.191,2.519,0.297,3.826,0.297c0.937,0,1.858-0.054,2.762-0.153c8.245-0.91,14.975-5.834,17.287-12.346h-13.89
	c-0.856,2.357-3.264,4.059-6.107,4.059c-3.56,0-6.445-2.663-6.445-5.95v-0.599h27.094c0.139-0.813,0.215-1.646,0.215-2.49
	c0-7.639-5.864-14.129-14.033-16.507c5.734-2.972,10.624-3.79,12.981-1.702c1.439,1.275,1.744,3.47,1.083,6.217h0.763
	C45.902,6.198,45.514,3.263,43.58,1.549"/>
<path fill="#E96D62" d="M39.361,36.124c-0.088-0.046-0.229-0.068-0.423-0.068h-0.299v0.656h0.315c0.148,0,0.26-0.014,0.334-0.041
	c0.137-0.049,0.205-0.144,0.205-0.282C39.494,36.257,39.45,36.169,39.361,36.124 M38.986,35.829c0.245,0,0.425,0.022,0.54,0.066
	c0.205,0.079,0.307,0.232,0.307,0.463c0,0.163-0.063,0.284-0.192,0.361c-0.069,0.041-0.164,0.07-0.287,0.088
	c0.156,0.021,0.269,0.082,0.341,0.178s0.108,0.189,0.108,0.281v0.133c0,0.042,0.001,0.087,0.004,0.135
	c0.003,0.049,0.008,0.08,0.016,0.094l0.011,0.023h-0.321c-0.002-0.006-0.004-0.012-0.006-0.019c-0.002-0.005-0.002-0.013-0.005-0.02
	l-0.007-0.058v-0.145c0-0.21-0.062-0.348-0.188-0.414c-0.074-0.039-0.204-0.06-0.392-0.06h-0.275v0.714h-0.347v-1.822H38.986z
	 M37.921,35.739c-0.302,0.278-0.451,0.615-0.451,1.01c0,0.397,0.149,0.736,0.449,1.017c0.302,0.28,0.668,0.42,1.099,0.42
	s0.797-0.14,1.098-0.42c0.302-0.28,0.453-0.619,0.453-1.017c0-0.395-0.151-0.731-0.453-1.01c-0.303-0.281-0.669-0.42-1.098-0.42
	C38.59,35.319,38.225,35.458,37.921,35.739 M40.292,37.923c-0.352,0.326-0.775,0.488-1.273,0.488c-0.499,0-0.923-0.162-1.273-0.488
	c-0.347-0.322-0.521-0.715-0.521-1.176c0-0.457,0.175-0.847,0.525-1.171c0.351-0.323,0.772-0.483,1.269-0.483
	c0.498,0,0.922,0.16,1.273,0.483c0.352,0.322,0.527,0.712,0.527,1.171S40.644,37.599,40.292,37.923"/>
</svg>
