<?xml version="1.0" encoding="utf-8"?>
<!-- Generator: Adobe Illustrator 16.0.0, SVG Export Plug-In . SVG Version: 6.00 Build 0)  -->
<!DOCTYPE svg PUBLIC "-//W3C//DTD SVG 1.1//EN" "http://www.w3.org/Graphics/SVG/1.1/DTD/svg11.dtd">
<svg version="1.1" id="Ebene_1" xmlns="http://www.w3.org/2000/svg" xmlns:xlink="http://www.w3.org/1999/xlink" x="0px" y="0px"
	 width="70.829px" height="30.295px" viewBox="-0.393 0.129 70.829 30.295" enable-background="new -0.393 0.129 70.829 30.295"
	 xml:space="preserve">
<g>
	<g>
		<path fill="#E96D62" d="M57.801,10.292c0.147-0.228,0.345-0.435,0.584-0.604c0.19-0.133,0.392-0.231,0.599-0.298
			c1.807-0.954,4.004-0.544,5.125,1.038c1.229,1.735,0.701,4.221-1.177,5.553c-1.879,1.331-4.399,1.004-5.626-0.729
			C56.24,13.748,56.493,11.683,57.801,10.292 M49.932,29.977c13.553-2.389,20.391-13.859,20.391-13.859l0.114-0.433
			c0,0-5.192-13.205-20.212-15c3.159,2.128,5.246,7.235,5.25,13.404l-8.615-0.006l0.098-13.437c-0.993-0.109-2.033-0.168-3.114-0.17
			l-0.02,13.606l-5.21-0.004l0.018-13.663c-0.94,0.124-1.908,0.292-2.904,0.501l-0.018,13.161l-4.688-0.002l0.016-11.817
			c-0.96,0.307-1.943,0.651-2.949,1.038l-0.015,10.779l-5.355-0.003L22.73,5.1c-0.988,0.467-1.998,0.975-3.028,1.519l-0.009,7.451
			l-7.054-0.004c-0.176-4.187-2.612-8.934-9.235-13.936c0,0-6.387,8.914-0.147,15.001c0,0-6.778,6.166-1.86,15.293
			c0,0,9.249-5.312,10.977-13.311l7.314,0.004l-0.008,6.776c1.024,0.594,2.033,1.142,3.022,1.64l0.011-8.415l5.355,0.005
			l-0.015,10.513c1.002,0.387,1.984,0.725,2.947,1.018l0.016-11.529l4.688,0.003l-0.018,12.438c0.991,0.17,1.959,0.291,2.901,0.368
			l0.019-12.806l5.211,0.004l-0.018,13.201c1.012-0.068,1.993-0.187,2.939-0.35l0.096-12.85l8.474,0.003
			C54.729,22.533,52.664,27.228,49.932,29.977"/>
	</g>
</g>
</svg>
