<?xml version="1.0" encoding="utf-8"?>
<!-- Generator: Adobe Illustrator 16.0.0, SVG Export Plug-In . SVG Version: 6.00 Build 0)  -->
<!DOCTYPE svg PUBLIC "-//W3C//DTD SVG 1.1//EN" "http://www.w3.org/Graphics/SVG/1.1/DTD/svg11.dtd">
<svg version="1.1" id="Ebene_1" xmlns="http://www.w3.org/2000/svg" xmlns:xlink="http://www.w3.org/1999/xlink" x="0px" y="0px"
	 width="56.579px" height="52.021px" viewBox="0 0 56.579 52.021" enable-background="new 0 0 56.579 52.021" xml:space="preserve">
<g>
	<g>
		<path fill="#E96D62" d="M29.404,47.753c-1.522,0-2.757-1.233-2.757-2.758c0-1.521,1.235-2.757,2.757-2.757
			c1.522,0,2.759,1.234,2.759,2.757C32.163,46.519,30.928,47.753,29.404,47.753 M36.432,45.76v-1.529l-1.064-0.267
			c-0.223-0.056-0.396-0.227-0.453-0.445c-0.002-0.001-0.002-0.002-0.002-0.003c-0.059-0.218,0.006-0.448,0.168-0.604l0.791-0.766
			l-0.764-1.325l-1.051,0.3c-0.223,0.064-0.463,0.002-0.627-0.16c0-0.002,0-0.002,0-0.002c-0.156-0.154-0.217-0.385-0.154-0.598
			l0.305-1.066l-1.324-0.766l-0.764,0.789c-0.158,0.163-0.393,0.229-0.611,0.17c-0.002,0-0.002-0.001-0.004-0.001
			c-0.217-0.058-0.385-0.229-0.438-0.447l-0.269-1.07h-1.53l-0.267,1.064c-0.055,0.221-0.226,0.396-0.445,0.453
			c-0.001,0-0.003,0.001-0.004,0.001c-0.216,0.059-0.447-0.006-0.603-0.167l-0.767-0.793l-1.325,0.766l0.301,1.05
			c0.063,0.223,0.001,0.464-0.162,0.626v0.002c-0.157,0.155-0.385,0.216-0.598,0.153l-1.067-0.305l-0.765,1.325l0.789,0.762
			c0.163,0.158,0.228,0.394,0.169,0.612c0,0.001,0,0.003,0,0.004c-0.058,0.217-0.229,0.385-0.447,0.438l-1.07,0.269v1.529
			l1.065,0.267c0.22,0.055,0.394,0.227,0.453,0.446c0,0.001,0,0.003,0.001,0.004c0.058,0.216-0.006,0.446-0.168,0.603l-0.792,0.769
			l0.765,1.323l1.05-0.301c0.222-0.062,0.462-0.002,0.626,0.161c0,0.001,0,0.001,0,0.001c0.157,0.156,0.216,0.386,0.156,0.599
			l-0.306,1.066l1.325,0.766l0.763-0.789c0.158-0.163,0.393-0.229,0.612-0.17c0.001,0.001,0.002,0.001,0.003,0.001
			c0.217,0.059,0.386,0.229,0.44,0.446l0.268,1.07h1.53l0.266-1.065c0.057-0.22,0.227-0.394,0.445-0.452
			c0.002,0,0.002-0.001,0.004-0.001c0.217-0.059,0.447,0.006,0.604,0.167l0.768,0.793l1.324-0.766l-0.301-1.05
			c-0.062-0.223-0.002-0.463,0.162-0.626V49.02c0.156-0.156,0.387-0.215,0.6-0.155l1.066,0.306l0.764-1.323l-0.787-0.765
			c-0.164-0.157-0.229-0.393-0.17-0.61c0-0.001,0-0.003,0-0.005c0.06-0.218,0.229-0.386,0.447-0.439L36.432,45.76z M46.219,39.948
			c-2.098,0-3.799-1.701-3.799-3.799c0-2.099,1.701-3.799,3.799-3.799s3.799,1.7,3.799,3.799
			C50.018,38.247,48.316,39.948,46.219,39.948 M56.579,37.546v-2.791l-1.509-0.536c-0.573-0.203-1.036-0.644-1.271-1.206
			c0,0,0,0,0-0.002c-0.234-0.564-0.219-1.201,0.045-1.755l0.688-1.444l-1.975-1.973l-1.443,0.687
			c-0.553,0.262-1.191,0.279-1.756,0.045l0,0c-0.564-0.233-1.004-0.696-1.207-1.271l-0.537-1.508h-2.789l-0.537,1.508
			c-0.203,0.574-0.643,1.038-1.207,1.271c-0.563,0.234-1.203,0.218-1.756-0.045l-1.443-0.687l-1.973,1.973l0.686,1.444
			c0.263,0.553,0.279,1.19,0.046,1.755c0,0.002,0,0.002,0,0.002c-0.234,0.562-0.697,1.003-1.271,1.206l-1.509,0.536v2.791
			l1.509,0.534c0.573,0.205,1.036,0.646,1.271,1.207c0,0.001,0,0.001,0,0.001c0.233,0.565,0.217,1.203-0.046,1.756l-0.686,1.444
			l1.973,1.974l1.443-0.687c0.553-0.263,1.191-0.279,1.756-0.045l0,0c0.564,0.233,1.002,0.695,1.207,1.271l0.537,1.508h2.789
			l0.533-1.498c0.207-0.58,0.648-1.047,1.217-1.283h0.002c0.561-0.233,1.191-0.218,1.738,0.043l1.453,0.69l1.975-1.974l-0.688-1.444
			c-0.264-0.553-0.279-1.189-0.045-1.755v-0.001c0.234-0.562,0.697-1.003,1.271-1.208L56.579,37.546z M19.488,26.635
			c-3.947,0-7.147-3.199-7.147-7.146c0-3.948,3.2-7.146,7.147-7.146c3.946,0,7.146,3.198,7.146,7.146
			C26.634,23.435,23.434,26.635,19.488,26.635 M38.975,22.112v-5.249l-2.836-1.008c-1.08-0.386-1.951-1.211-2.391-2.271v-0.002
			c-0.441-1.062-0.412-2.263,0.082-3.302l1.293-2.718l-3.713-3.711l-2.716,1.291c-1.039,0.493-2.24,0.524-3.303,0.085
			c0-0.001-0.001-0.001-0.001-0.001c-1.061-0.44-1.886-1.31-2.27-2.392L22.112,0h-5.249l-1.009,2.837
			c-0.384,1.081-1.21,1.951-2.27,2.392l-0.001,0.001c-1.063,0.44-2.263,0.41-3.303-0.084L7.564,3.853l-3.712,3.71l1.291,2.718
			c0.494,1.038,0.525,2.24,0.085,3.302c-0.001,0-0.001,0.002-0.001,0.002c-0.44,1.062-1.309,1.887-2.391,2.271L0,16.863v5.249
			l2.836,1.009c1.081,0.385,1.952,1.21,2.391,2.271c0,0.001,0,0.001,0.001,0.001c0.44,1.062,0.409,2.263-0.084,3.302l-1.292,2.718
			l3.712,3.711l2.717-1.291c1.038-0.493,2.24-0.523,3.302-0.084c0.001,0,0.001,0,0.001,0c1.061,0.44,1.886,1.311,2.27,2.393
			l1.009,2.836h5.249l1.003-2.818c0.387-1.091,1.221-1.97,2.29-2.415h0.001c1.053-0.438,2.242-0.407,3.271,0.081l2.736,1.3
			l3.711-3.711l-1.293-2.719c-0.494-1.038-0.523-2.238-0.084-3.299c0-0.001,0.002-0.001,0.002-0.002
			c0.438-1.062,1.311-1.888,2.393-2.272L38.975,22.112z"/>
	</g>
</g>
</svg>
