<?xml version="1.0" encoding="utf-8"?>
<!-- Generator: Adobe Illustrator 16.0.0, SVG Export Plug-In . SVG Version: 6.00 Build 0)  -->
<!DOCTYPE svg PUBLIC "-//W3C//DTD SVG 1.1//EN" "http://www.w3.org/Graphics/SVG/1.1/DTD/svg11.dtd">
<svg version="1.1" id="Ebene_1" xmlns="http://www.w3.org/2000/svg" xmlns:xlink="http://www.w3.org/1999/xlink" x="0px" y="0px"
	 width="66.575px" height="51px" viewBox="0 0 66.575 51" enable-background="new 0 0 66.575 51" xml:space="preserve">
<g>
	<g>
		<path fill="#E96D62" d="M66.577,37.593c-0.699,1.703-1.623,3.144-3.726,3.265c1.2-1.123,2.456-2.188,2.399-4.043
			c0.43,0.156,0.778,0.742,1.324,0.254v0.524H66.577z"/>
	</g>
	<g>
		<path fill="#E96D62" d="M49.345,21.317c-0.24,0.842-0.897,0.803-1.554,0.764c-0.764-0.045-1.076,0.142-1.113,1.098
			c-0.027,0.701-0.006,1.843-1.167,2.052c0.252-0.914,0.444-1.854,0.771-2.742C46.85,20.952,48.198,21.37,49.345,21.317"/>
	</g>
	<g>
		<path fill="#E96D62" d="M41.139,23.669c-1.18,0.062-2.454-0.319-3.393,0.835c-0.084,0.103-0.197-0.188-0.228-0.346
			C38.278,23.257,39.779,23.054,41.139,23.669"/>
	</g>
	<g>
		<path fill="#E96D62" d="M21.342,23.345c1.276-0.354,2.553-0.332,3.832-0.014C23.896,23.454,22.62,23.45,21.342,23.345"/>
	</g>
	<g>
		<path fill="#E96D62" d="M50.038,23.628c-0.343-0.689-0.113-1.42-0.146-2.132c0.574,0.054,0.713,0.363,0.523,0.896
			C50.273,22.797,50.163,23.215,50.038,23.628"/>
	</g>
	<g>
		<path fill="#E96D62" d="M41.819,9.71c-0.287-0.861-0.279-1.722-0.003-2.584C41.959,7.988,41.967,8.849,41.819,9.71"/>
	</g>
	<g>
		<path fill="#E96D62" d="M46.765,38.843c0.129-1.966,1.173-3.317,2.448-4.64C49.991,36.271,49.002,38.139,46.765,38.843
			 M37.306,41.016c1.019-1.191,2.038-2.387,3.057-3.58C40.254,39.391,38.973,40.369,37.306,41.016 M27.796,30.9
			c-0.767,2.867-1.831,5.63-3.022,8.34c-0.157,0.354-0.356,0.695-0.562,1.027c-0.158,0.254-0.331,0.588-0.663,0.547
			c-0.392-0.049-0.51-0.47-0.583-0.783c-0.158-0.676-0.228-1.373-0.301-1.85c0.175-3.231,1.163-5.923,3.008-8.279
			c0.026-0.035,0.051-0.071,0.083-0.103c0.6-0.551,1.296-1.405,2.055-1C28.641,29.246,27.981,30.214,27.796,30.9 M9.282,47.264
			c-0.936,0.342-1.982,0.666-2.78-0.139c-0.84-0.848-0.463-1.979-0.151-2.948c0.434-1.351,1.307-2.46,2.352-3.368
			c1.426-1.24,2.949-2.365,4.552-3.363c1.245-0.774,1.322-0.721,1.423,0.812c0.019,0.306,0.034,0.61,0.044,0.783
			C14.758,42.717,12.505,46.086,9.282,47.264 M60.598,29.783c-2.786-0.74-5.579-0.614-8.26,0.515
			c-0.846,0.354-1.225,0.242-1.65-0.606c-0.986-1.959-1.197-3.956-0.65-6.062c-0.188-0.701,0.387-1.456-0.146-2.132
			c-0.14-0.197-0.333-0.221-0.546-0.179c-0.459,0.361-1.004,0.414-1.553,0.438c-0.812,0.035-1.283,0.302-1.353,1.292
			c-0.054,0.771-0.282,1.609-0.931,2.186c-1.191,2.173-2.211,4.452-3.688,6.559c-1.251-2.18-1.331-4.325-0.646-6.538
			c0.166-0.54,0.435-1.067-0.037-1.584c-1.266-0.3-2.483-0.222-3.619,0.489c-1.869,5.307-4.24,10.381-6.758,15.392
			c-0.309-0.788-0.212-1.519-0.042-2.231c0.444-1.862,0.919-3.719,1.378-5.578c0.22-0.896,0.145-1.98-0.889-1.874
			c-1.439,0.149-1.083-0.683-1.109-1.419c-0.077-2.178-1.319-3.079-3.334-2.377c-1.675,0.585-2.916,1.794-4.068,3.104
			c-0.344,0.392-0.677,0.78-1.138,1.04c-1.797,1.012-3.593,2.024-5.383,3.051c-0.4,0.229-0.697,0.348-1.104-0.074
			c-1.965-2.023-4.344-3.543-6.43-5.416c-2.172-1.949-3.99-4.109-3.515-7.425c0.319-2.233,1.414-4.033,2.916-5.561
			c5.265-5.356,11.648-8.666,18.852-10.247c3.009-0.661,6.12-0.813,9.062,0.583c1.643,0.777,2.502,2.051,2.359,3.953
			c-0.219,2.907-1.806,5.047-3.809,6.898c-3.491,3.223-7.678,4.854-12.322,5.209c-2.083,0.16-4.089-0.283-5.74-1.759
			c-0.272-0.242-0.5-0.771-0.914-0.422c-0.345,0.292-0.032,0.725,0.111,1.082c0.22,0.542,0.623,0.937,1.038,1.316
			c1.328,1.209,2.917,1.771,4.662,1.942c1.275-0.147,2.553-0.116,3.831-0.015c2.392-0.254,4.738-0.759,6.924-1.785
			c5.048-2.371,8.656-6.021,9.721-11.835c-0.086-0.861-0.082-1.723-0.003-2.583c-0.428-3.249-2.563-4.958-5.319-6.027
			C35.254,0.621,33.932,0.36,32.646,0h-4.884c-1.668,0.296-3.388,0.235-5.018,0.806C15.807,3.241,9.304,6.409,4.143,11.96
			C2.135,14.119,0.509,16.45,0,19.454v2.629c0.345,1.811,1.229,3.324,2.44,4.664c1.693,1.874,3.572,3.521,5.651,4.93
			c1.178,0.798,2.301,1.677,3.463,2.496c0.71,0.502,0.718,0.851-0.079,1.28c-1.858,1.002-3.647,2.136-5.27,3.5
			c-1.618,1.361-3.192,2.783-3.917,4.921C1.079,47.439,2.458,50.395,5.656,51h2.827c2.959-0.24,5.213-1.757,7.003-4.084
			c2.342-3.045,2.824-6.516,2.02-10.189c-0.223-1.019-0.062-1.597,0.857-1.966c0.453-0.181,0.814-0.604,1.366-0.629
			c0.055,0.658-0.253,1.2-0.125,1.773c0.161,1.475,0.125,2.954,0.025,4.434c0.037,1.226,0.536,2.298,1.125,3.313
			c1.045,1.805,3.42,1.886,4.607,0.182c0.767-1.104,1.319-2.327,1.877-3.77c-0.131,1.017,0.015,1.826,0.305,2.599
			c0.591,1.571,1.878,1.929,3.158,0.889c0.749-0.608,1.304-1.386,1.76-2.237c1.375-2.571,2.759-5.138,3.881-7.844
			c0.424-1.019,0.843-2.049,1.416-3.343c0.279,1.409,0.58,2.478,1.121,3.414c0.574,0.991,0.4,1.714-0.242,2.608
			c-1.09,1.519-2.562,2.711-3.506,4.338c-0.877,1.517-0.315,2.637,1.404,2.658c2.568,0.035,4.762-0.938,6.434-2.981
			c0.412-0.506,0.715-1.097,0.669-1.8c-0.164-0.84-0.144-1.68-0.042-2.524c0.062-0.735-0.572-1.481-0.141-2.169
			c1.119-1.773,2.076-3.648,3.162-5.55c0.481,0.92,0.411,1.878,1.03,2.549c0.595,0.462,1.283,0.896,0.526,1.774
			c-0.541,0.492-1.072,1.002-1.559,1.557c-1.076,1.229-1.854,2.625-2.119,4.268c-0.264,1.616,0.735,2.824,2.154,2.68
			c3.756-0.383,6.355-3.639,5.951-7.489c-0.061-0.567,0.025-0.923,0.605-1.09c2.64-0.759,5.254-0.64,7.822,0.272
			c2.031,0.724,3.292,2.269,4.016,4.301c0.486,0.354,0.949,0.959,1.527,0.121v-1.312C65.706,32.59,63.668,30.598,60.598,29.783"/>
	</g>
	<g>
		<path fill="#E96D62" d="M19.854,40.463c-0.346-1.564-0.199-3.129,0.007-4.693C20.159,37.334,20.175,38.898,19.854,40.463"/>
	</g>
	<g>
		<path fill="#E96D62" d="M48.536,32.582c0.002-0.783-0.654-1.331-0.728-2.087C48.773,30.928,49.213,31.552,48.536,32.582"/>
	</g>
	<g>
		<path fill="#E96D62" d="M43.379,35.762c0.148,0.867,0.187,1.735,0.015,2.604C43.051,37.5,43.071,36.632,43.379,35.762"/>
	</g>
</g>
</svg>
