<?xml version="1.0" encoding="utf-8"?>
<!-- Generator: Adobe Illustrator 16.0.0, SVG Export Plug-In . SVG Version: 6.00 Build 0)  -->
<!DOCTYPE svg PUBLIC "-//W3C//DTD SVG 1.1//EN" "http://www.w3.org/Graphics/SVG/1.1/DTD/svg11.dtd">
<svg version="1.1" id="Ebene_1" xmlns="http://www.w3.org/2000/svg" xmlns:xlink="http://www.w3.org/1999/xlink" x="0px" y="0px"
	 width="80px" height="20px" viewBox="0 0 80 20" enable-background="new 0 0 80 20" xml:space="preserve">
<g>
	<path fill="#FFFFFF" d="M6.336,12.457c0,0.303,0.118,0.473,0.427,0.473c0.784,0,1.566-1.452,2.564-2.98
		c0.118-0.188,0.308-0.32,0.427-0.32c0.094,0,0.141,0.057,0.141,0.171c0,0.075-0.023,0.188-0.094,0.34
		c-0.333,0.679-1.52,3.809-3.584,3.809c-0.948,0-1.852-0.528-1.852-1.66c0-1.64,1.876-5.13,1.876-6.373
		c0-0.285-0.095-0.454-0.332-0.454c-0.688,0-2.564,2.224-3.584,5.731c-0.546,2.038-0.474,2.756-1.424,2.756
		C0.452,13.948,0,13.685,0,13.116C0,11.893,1.661,5.198,3.274,0.88C3.394,0.542,3.773,0.39,4.2,0.39c0.57,0,1.187,0.302,1.187,0.792
		c0,0.603-0.665,1.66-1.828,5.694c0.855-1.489,1.898-2.582,2.99-2.582c1.4,0,1.757,0.885,1.757,1.583
		C8.306,7.971,6.336,11.231,6.336,12.457z"/>
	<path fill="#FFFFFF" d="M15.549,12.308c0,0.281,0.119,0.472,0.332,0.472c0.498,0,1.234-1.002,2.351-2.83
		c0.118-0.205,0.308-0.32,0.426-0.32c0.071,0,0.143,0.057,0.143,0.188c0,0.077-0.023,0.189-0.095,0.322
		c-0.332,0.659-1.826,3.751-3.654,3.751c-0.736,0-1.614-0.321-1.614-1.734c0-0.094,0-0.226,0.024-0.361
		c-0.784,1.285-1.686,2.096-2.445,2.096c-1.281,0-1.826-1.094-1.826-2.566c0-2.862,2.087-7.126,4.817-7.126
		c0.948,0,1.542,0.811,1.589,1.396h0.143c0.593,0,1.307,0.396,1.307,1.093c0,0.094,0,0.188-0.025,0.282
		C16.379,9.366,15.549,11.405,15.549,12.308z M14.244,8.726l0.759-2.716c0-0.322-0.071-0.716-0.64-0.716
		c-1.59,0-3.039,4.413-3.039,6.392c0,0.563,0.118,0.924,0.404,0.924C12.607,12.609,13.65,10.818,14.244,8.726z"/>
	<path fill="#FFFFFF" d="M18.64,13.948c-0.499,0-1.044-0.285-1.044-0.85c0-0.056,0.023-0.114,0.023-0.169
		c0.427-2.829,0.973-4.732,2.088-7.75c0.119-0.34,0.499-0.49,0.879-0.49c0.568,0,1.162,0.32,1.162,0.868
		c0,0.491-0.403,1.262-0.547,1.754c0.974-1.772,2.184-3.148,3.419-3.148c1.399,0,1.755,1.017,1.755,1.715
		c0,2.131-2.302,5.393-2.302,6.543c0,0.245,0.12,0.397,0.38,0.397c1.044,0,2.682-2.489,2.967-2.868
		c0.143-0.188,0.333-0.32,0.451-0.32c0.071,0,0.118,0.039,0.118,0.132c0,0.076-0.023,0.188-0.095,0.34
		c-0.284,0.68-2.018,3.848-4.083,3.848c-0.949,0-1.851-0.528-1.851-1.66c0-1.697,2.278-5.109,2.278-6.373
		c0-0.246-0.117-0.454-0.38-0.454c-0.877,0-2.966,2.925-3.892,6.333l-0.071,0.136c-0.117,0.526-0.214,0.979-0.284,1.393
		C19.518,13.739,19.09,13.948,18.64,13.948z"/>
	<path fill="#FFFFFF" d="M33.594,11.968c0,0.507,0.145,0.792,0.476,0.792c0.832,0,1.827-1.771,2.469-2.811
		c0.119-0.205,0.307-0.32,0.427-0.32c0.095,0,0.142,0.077,0.142,0.188c0,0.077-0.021,0.189-0.094,0.322
		c-0.594,1.15-1.543,3.751-3.868,3.751c-0.95,0-1.495-0.811-1.495-1.942c0-0.056,0-0.171,0.023-0.284
		c-0.807,1.379-1.755,2.227-2.563,2.227c-1.281,0-1.827-1.094-1.827-2.566c0-2.862,2.089-7.126,4.817-7.126
		c0.642,0,1.021,0.455,1.235,0.907c0.498-1.774,1.044-3.469,1.398-4.508c0.095-0.282,0.404-0.416,0.759-0.416
		c0.594,0,1.306,0.378,1.306,1.076C36.798,2.484,33.594,9.779,33.594,11.968z M33.122,5.877c-0.023-0.246-0.142-0.583-0.664-0.583
		c-1.591,0-3.039,4.413-3.039,6.392c0,0.563,0.119,0.924,0.405,0.924c0.948,0,1.873-1.888,2.584-4.147
		C32.623,7.649,32.86,6.762,33.122,5.877z"/>
	<path fill="#FFFFFF" d="M35.31,18.151c0-2.073,2.515-2.847,4.912-4.018c0.095-0.564,0.213-1.185,0.356-1.846
		c-0.618,1.018-1.425,1.603-2.423,1.603c-1.423,0-1.898-0.792-1.898-1.98c0-1.903,1.188-4.808,1.71-7.126
		c0.07-0.378,0.428-0.528,0.854-0.528c0.617,0,1.332,0.358,1.332,0.83c0,0.661-0.383,1.622-0.665,2.64
		c-0.477,1.657-0.975,3.433-0.975,4.167c0,0.454,0.142,0.717,0.498,0.717c1.282,0,1.758-2.188,2.801-5.412
		c0.38-1.413,0.664-2.413,0.664-2.413c0.094-0.321,0.475-0.471,0.879-0.471c0.594,0,1.258,0.301,1.258,0.734
		c0,0.51-0.382,0.717-1.897,7.637c0.95-0.697,1.824-1.564,2.535-2.734c0.122-0.205,0.312-0.34,0.43-0.34
		c0.094,0,0.141,0.059,0.141,0.19c0,0.075-0.022,0.188-0.094,0.34c-0.877,1.753-2.062,2.903-3.274,3.751
		C41.386,18.358,39.606,20,37.731,20C36.569,20,35.31,19.189,35.31,18.151z M37.184,19.415c2.23,0,2.657-2.865,2.848-4.11
		c-1.684,0.847-3.727,1.755-3.727,3.261c0,0.417,0.285,0.659,0.641,0.829C37.016,19.415,37.091,19.415,37.184,19.415z"/>
</g>
<g>
	<path fill="#FFFFFF" d="M47.622,17.971c0-2,2.562-2.996,5.03-4.186l0.664-2.662c-0.832,1.586-1.897,2.586-2.777,2.586
		c-1.28,0-1.827-1.095-1.827-2.565c0-2.865,2.086-7.127,4.817-7.127c0.975,0,1.494,0.811,1.541,1.397h0.169
		c0.593,0,1.328,0.395,1.328,1.131c0,0.715-0.429,1.959-1.352,5.844c1.043-0.68,1.968-1.529,2.633-2.62
		c0.118-0.208,0.283-0.302,0.405-0.302c0.094,0,0.166,0.056,0.166,0.188c0,0.076-0.049,0.187-0.096,0.302
		c-0.856,1.677-2.133,2.828-3.467,3.697c-0.974,3.693-2.539,6.164-4.817,6.164C48.689,19.817,47.622,19.007,47.622,17.971z
		 M52.272,15.083c-1.687,0.888-3.656,1.886-3.656,3.299c0,0.437,0.311,0.85,0.854,0.85c0.763,0,1.827-0.771,2.659-3.579
		L52.272,15.083z M54.551,5.77c-0.027-0.245-0.075-0.66-0.668-0.66c-1.589,0-3.036,4.413-3.036,6.392
		c0,0.563,0.119,0.925,0.404,0.925c1.114,0,2.277-2.433,2.991-5.376L54.551,5.77z"/>
	<path fill="#FFFFFF" d="M59.087,13.142c-0.068,0.413-0.476,0.623-0.879,0.623c-0.449,0-0.902-0.264-0.902-0.829
		c0-1.321,0.808-5.036,1.875-7.938c0.119-0.322,0.497-0.471,0.902-0.471c0.547,0,1.163,0.301,1.163,0.83
		c0,0.32-0.283,0.791-0.405,1.131c0.857-1.453,1.899-2.509,3.062-2.509c0.881,0,1.211,0.416,1.211,1.227
		c0,1.058-1.139,2.811-1.139,3.469c0,0.265,0.191,0.415,0.545,0.415c0.787,0,1.76-1.377,2.162-2.112
		c0.143-0.282,0.308-0.451,0.449-0.451c0.263,0,0.17,0.395,0.122,0.525c-0.358,1.075-1.734,2.774-3.372,2.774
		c-0.953,0-1.852-0.32-1.852-1.454c0-1.035,1.045-2.298,1.045-2.884c0-0.131-0.07-0.227-0.24-0.227c-0.805,0-2.751,2.7-3.368,5.883
		L59.087,13.142z"/>
	<path fill="#FFFFFF" d="M67.443,11.841c0,0.397,0.123,0.623,0.429,0.623c0.877,0,2.182-2.28,2.444-2.695
		c0.143-0.208,0.284-0.322,0.402-0.322c0.098,0,0.169,0.076,0.169,0.19c0,0.094-0.025,0.188-0.099,0.319
		c-0.33,0.661-1.706,3.753-3.7,3.753c-0.926,0-1.709-0.526-1.709-1.94c0-1.133,0.904-4.622,1.853-7.395
		c0.117-0.319,0.498-0.489,0.945-0.489c0.595,0,1.235,0.32,1.235,0.962C69.413,5.845,67.443,10.39,67.443,11.841z M67.49,2.113
		c0-0.811,0.835-1.867,2.139-1.867c0.972,0,1.399,0.452,1.399,0.981c0,0.789-0.975,1.789-2.468,1.789
		C67.825,3.017,67.49,2.603,67.49,2.113z"/>
	<path fill="#FFFFFF" d="M76.488,11.785c0,0.509,0.143,0.793,0.475,0.793c0.831,0,1.825-1.773,2.466-2.81
		c0.122-0.208,0.311-0.322,0.429-0.322c0.095,0,0.143,0.076,0.143,0.19c0,0.076-0.024,0.188-0.096,0.319
		c-0.593,1.149-1.541,3.753-3.867,3.753c-0.951,0-1.498-0.812-1.498-1.94c0-0.06,0-0.174,0.027-0.285
		c-0.806,1.376-1.757,2.226-2.561,2.226c-1.282,0-1.83-1.095-1.83-2.565c0-2.865,2.089-7.127,4.817-7.127
		c0.642,0,1.021,0.455,1.232,0.907c0.499-1.775,1.046-3.47,1.4-4.509C77.723,0.132,78.03,0,78.387,0
		c0.595,0,1.306,0.378,1.306,1.074C79.693,2.302,76.488,9.598,76.488,11.785z M76.014,5.695C75.99,5.449,75.872,5.11,75.349,5.11
		c-1.589,0-3.039,4.413-3.039,6.392c0,0.563,0.118,0.925,0.405,0.925c0.947,0,1.874-1.887,2.586-4.148
		C75.513,7.468,75.754,6.58,76.014,5.695z"/>
</g>
</svg>
