<?xml version="1.0" encoding="utf-8"?>
<!-- Generator: Adobe Illustrator 16.0.0, SVG Export Plug-In . SVG Version: 6.00 Build 0)  -->
<!DOCTYPE svg PUBLIC "-//W3C//DTD SVG 1.1//EN" "http://www.w3.org/Graphics/SVG/1.1/DTD/svg11.dtd">
<svg version="1.1" id="Ebene_1" xmlns="http://www.w3.org/2000/svg" xmlns:xlink="http://www.w3.org/1999/xlink" x="0px" y="0px"
	 width="202.211px" height="220.527px" viewBox="0 0 202.211 220.527" enable-background="new 0 0 202.211 220.527"
	 xml:space="preserve">
<polygon fill="#FFFFFF" points="0,0 0,220.527 202.211,178.848 202.211,0 "/>
<g>
	<defs>
		<rect id="SVGID_1_" width="202.211" height="220.527"/>
	</defs>
	<clipPath id="SVGID_2_">
		<use xlink:href="#SVGID_1_"  overflow="visible"/>
	</clipPath>
	<path clip-path="url(#SVGID_2_)" fill="#283232" d="M39.223,103.503c-0.167-0.495-0.466-1.327-1.598-1.051
		c-3.036,0.746-3.682,10.543-2.741,14.64c0.275,1.166,0.673,1.855,1.218,1.72c2.131-0.522,3.188-6.099,3.143-12.515L39.223,103.503z
		 M39.327,123.828c-2.804,2.621-6.092,5.607-5.407,8.536c0.206,0.895,0.998,1.606,2.048,1.354c1.442-0.361,3.123-2.46,3.362-8.655
		L39.327,123.828z M31.819,131.969c-0.964-4.123,3.463-7.394,7.61-11.01l0.001-5.811c-0.835,3.666-2.403,6.236-4.072,6.646
		c-2.461,0.604-4.024-1.402-4.737-4.44c-1.37-5.918,0.582-15.708,5.808-16.997c1.853-0.454,3.25,0.974,3.618,2.161l0.315-0.077
		c1.14-0.283,2.732,0.192,3.088,1.712c0.335,1.479,0.123,4.25,0.218,12.713c1.67-1.89,3.032-4.084,3.776-6.653
		c0.129-0.482,0.407-0.762,0.635-0.817c0.164-0.043,0.337,0.039,0.399,0.312c0.037,0.155,0.002,0.412-0.04,0.671
		c-0.821,3.866-2.722,6.854-4.845,9.265c-0.09,8.1-1.907,13.94-6.259,15.009C34.747,135.29,32.318,134.115,31.819,131.969"/>
	<path clip-path="url(#SVGID_2_)" fill="#283232" d="M52.063,109.2c2.682-0.658,5.112-7.768,4.405-10.809
		c-0.143-0.617-0.391-1.26-1.068-1.094c-2.586,0.638-4.251,7.141-3.7,11.952C51.848,109.254,51.93,109.233,52.063,109.2
		 M59.621,99.145c0.868,3.738-1.185,9.803-5.993,10.986c-0.551,0.139-1.15,0.203-1.781,0.192c0.402,1.711,1.266,4.633,4.081,3.937
		c4.314-1.061,5.649-5.841,6.457-7.725c0.189-0.455,0.374-0.67,0.609-0.725c0.17-0.045,0.351,0.082,0.405,0.313
		c0.036,0.152,0.037,0.357-0.007,0.578c-1.032,4.866-3.419,9.076-8.638,10.363c-3.896,0.962-6.196-1.688-7.054-5.395
		c-1.349-5.805,0.804-14.283,5.574-15.455c0.993-0.244,2.111-0.229,2.739,0.028C57.969,95.963,59.181,97.237,59.621,99.145"/>
	<path clip-path="url(#SVGID_2_)" fill="#283232" d="M65.083,114.605c-0.948,0.236-2.126-0.097-2.401-1.267
		c-0.022-0.115-0.01-0.244-0.037-0.36c-0.542-6.045-0.41-10.236,0.279-16.989c0.061-0.762,0.716-1.253,1.45-1.43
		c1.082-0.27,2.373,0.112,2.633,1.239c0.234,1.013-0.171,2.807-0.198,3.889c1.005-4.125,2.659-7.535,5.018-8.113
		c2.695-0.663,3.85,1.272,4.188,2.716c1.014,4.401-1.818,12.222-1.265,14.598c0.117,0.507,0.416,0.768,0.916,0.645
		c1.998-0.493,3.94-6.402,4.304-7.32c0.182-0.459,0.48-0.818,0.708-0.877c0.133-0.033,0.239,0.027,0.29,0.221
		c0.03,0.152,0.046,0.4-0.022,0.742c-0.226,1.536-2.016,8.904-5.957,9.873c-1.828,0.447-3.8-0.219-4.344-2.56
		c-0.807-3.507,1.91-11.633,1.302-14.24c-0.117-0.507-0.443-0.881-0.943-0.757c-1.676,0.413-4.271,7.437-4.406,14.921l-0.083,0.306
		c0.036,1.146,0.074,2.129,0.133,3.018C66.668,113.761,65.95,114.391,65.083,114.605"/>
	<path clip-path="url(#SVGID_2_)" fill="#283232" d="M80.179,89.638c0.139-1.883,0.292-3.694,0.513-5.44
		c0.069-0.718,0.768-1.217,1.629-1.429c1.138-0.28,2.515,0.039,2.821,1.363c0.223,0.978-0.065,2.86-0.2,4.54
		c2.256-0.387,4.377-0.787,4.508-0.241c0.127,0.543-1.467,1.346-4.716,2.477c-0.524,5.564-1.252,12.125-0.601,14.934
		c0.227,1.016,0.649,1.572,1.332,1.401c1.771-0.438,3.093-5.287,3.961-7.356c0.203-0.539,0.377-0.833,0.604-0.89
		c0.178-0.044,0.346,0.078,0.416,0.353c0.036,0.152,0.045,0.399-0.032,0.705c-0.324,1.519-1.966,8.679-5.774,9.617
		c-1.771,0.437-3.528-0.286-4.207-3.208c-0.598-2.573-0.731-8.345-0.438-14.308l-1.475,0.238c-0.559,0.093-0.903-0.354-1.026-0.861
		c-0.128-0.583,0.038-1.284,0.544-1.408C78.715,89.959,79.449,89.779,80.179,89.638"/>
	<path clip-path="url(#SVGID_2_)" fill="#283232" d="M93.27,96.221c3.095-3.478,3.676-12.518,2.62-17.083
		c-0.143-0.616-0.334-1.193-0.531-1.635C93.832,78.331,93.033,88.741,93.27,96.221 M95.869,76.555
		c1.305,0.295,2.304,0.834,2.911,3.443c1.244,5.376,0.139,16.315-5.466,17.201c0.097,2.074,0.28,3.883,0.563,5.094
		c0.38,1.675,1.103,2.32,2.374,2.008c2.417-0.592,4.52-4.323,5.473-7.441c0.129-0.482,0.365-0.705,0.604-0.764
		c0.172-0.045,0.347,0.081,0.41,0.35c0.035,0.158,0.027,0.321-0.014,0.578c-0.708,3.347-3.483,9.178-7.386,10.14
		c-3.087,0.761-4.684-1.363-5.497-4.868c-0.512-2.222-0.732-5.009-0.751-7.974c-0.124-8.207,0.647-17.085,4.777-18.096
		C94.684,76.021,95.451,76.246,95.869,76.555"/>
	<path clip-path="url(#SVGID_2_)" fill="#283232" d="M106.35,95.847c2.676-0.661,5.104-7.765,4.398-10.806
		c-0.139-0.62-0.384-1.262-1.068-1.094c-2.586,0.638-4.246,7.141-3.705,11.945C106.121,95.899,106.204,95.878,106.35,95.847
		 M113.9,85.794c0.861,3.741-1.186,9.803-5.986,10.986c-0.55,0.133-1.162,0.199-1.793,0.188c0.395,1.714,1.271,4.634,4.093,3.942
		c4.308-1.063,5.644-5.843,6.457-7.729c0.183-0.452,0.368-0.67,0.597-0.723c0.177-0.048,0.365,0.079,0.412,0.314
		c0.028,0.154,0.037,0.357-0.014,0.574c-1.027,4.867-3.413,9.077-8.632,10.363c-3.901,0.959-6.202-1.69-7.061-5.392
		c-1.348-5.808,0.811-14.282,5.574-15.457c1.006-0.244,2.118-0.229,2.746,0.028C112.248,82.612,113.449,83.885,113.9,85.794"/>
	<path clip-path="url(#SVGID_2_)" fill="#283232" d="M76.49,124.516c-0.316-0.986-0.907-2.652-3.159-2.094
		c-6.048,1.487-7.352,20.99-5.459,29.137c0.54,2.321,1.337,3.688,2.418,3.422c4.244-1.042,6.348-12.145,6.252-24.906L76.49,124.516z
		 M76.709,164.949c-5.563,5.223-12.106,11.177-10.759,16.991c0.414,1.789,1.987,3.201,4.061,2.689
		c2.891-0.709,6.221-4.89,6.705-17.216L76.709,164.949z M61.76,181.169c-1.905-8.22,6.89-14.723,15.157-21.924l-0.003-11.558
		c-1.654,7.295-4.769,12.405-8.12,13.227c-4.872,1.199-7.995-2.791-9.397-8.838c-2.733-11.779,1.145-31.266,11.537-33.817
		c3.701-0.913,6.472,1.934,7.207,4.297l0.625-0.153c2.253-0.557,5.445,0.377,6.145,3.407c0.684,2.946,0.239,8.456,0.43,25.301
		c3.325-3.769,6.034-8.13,7.521-13.244c0.252-0.962,0.789-1.51,1.25-1.621c0.355-0.093,0.693,0.076,0.807,0.618
		c0.078,0.31,0.008,0.823-0.074,1.338c-1.646,7.703-5.42,13.627-9.653,18.434c-0.178,16.114-3.788,27.733-12.467,29.871
		C67.583,187.774,62.754,185.438,61.76,181.169"/>
	<path clip-path="url(#SVGID_2_)" fill="#283232" d="M100.799,150.583c0.13,1.771-1.216,3.007-2.746,3.383
		c-1.716,0.425-3.688-0.234-4.226-2.569c-1.258-5.433-1.731-21.461-0.433-34.396c0.132-1.43,1.436-2.403,2.974-2.781
		c2.08-0.512,4.715,0.149,5.225,2.319c0.299,1.316-0.334,3.526-0.459,5.03c1.862-6.773,4.833-12.087,9.261-13.174
		c3.34-0.824,5.001,0.567,5.774,3.902c1.012,4.344-1.656,12.618-1.027,15.337c0.259,1.083,1.123,1.527,2.477,1.194
		c2.98-0.735,5.375-7.314,6.204-10.712c0.281-1.298,0.745-2.148,1.29-2.285c0.98-0.239,1.009,1.475,0.952,2.058
		c-0.335,4.753-3.95,13.027-10.181,14.561c-3.617,0.887-7.352,0.417-8.437-4.245c-0.983-4.253,1.785-10.425,1.222-12.834
		c-0.119-0.545-0.492-0.865-1.127-0.706c-3.061,0.754-7.897,13.663-7.213,27.348L100.799,150.583z"/>
	<path clip-path="url(#SVGID_2_)" fill="#283232" d="M122.273,97.354c-0.773-3.336,1.377-8.453,6.35-9.675
		c3.692-0.907,5.764,0.549,6.272,2.719c0.749,3.254-2.011,8.272-7.698,9.676C124.401,100.761,122.741,99.365,122.273,97.354
		 M131.383,137.408c0.371,1.63,1.035,2.451,2.207,2.158c3.346-0.818,6.143-11.429,6.74-13.373c0.334-0.989,0.771-1.593,1.227-1.705
		c0.359-0.086,0.703,0.157,0.811,0.625c0.09,0.387,0.098,0.795-0.061,1.411c-0.637,3.025-2.92,17.028-10.504,18.895
		c-3.524,0.865-7.014-0.568-8.36-6.387c-1.085-4.653-0.969-19.842-0.011-32.132c0.148-1.426,1.43-2.482,3.15-2.9
		c2.258-0.556,4.998,0.165,5.615,2.801C133.145,110.903,129.992,131.436,131.383,137.408"/>
	<path clip-path="url(#SVGID_2_)" fill="#283232" d="M158.132,104.103c-0.328-0.986-1.101-2.271-3.093-1.781
		c-6.055,1.487-7.352,20.989-5.465,29.132c0.545,2.325,1.336,3.69,2.418,3.429c3.625-0.892,5.338-9.519,5.895-19.485
		C157.924,111.864,157.978,107.993,158.132,104.103 M165.746,128.705c0.492,2.099,1.299,3.125,2.559,2.813
		c3.163-0.775,5.268-9.003,6.721-13.867c0.265-0.964,0.871-1.609,1.321-1.719c0.36-0.092,0.615,0.181,0.724,0.646
		c0.072,0.307,0.084,0.798-0.056,1.41c-1.155,5.281-2.28,16.867-11.144,19.05c-3.629,0.888-6.465-1.93-7.551-6.585
		c-0.06-0.236-0.168-0.698-0.18-1.189c-1.756,6.413-4.564,10.792-7.634,11.551c-4.876,1.203-8.006-2.786-9.401-8.835
		c-2.74-11.78,1.144-31.265,11.536-33.822c2.429-0.598,4.316,0.905,5.556,2.57c0.215-7.757,0.66-15.243,1.025-19.845
		c0.098-1.253,1.154-2.081,2.514-2.415c2.252-0.552,5.319,0.327,5.984,3.2C168.895,86.708,163.662,119.71,165.746,128.705"/>
</g>
</svg>
